<svg width="8" height="14" viewBox="0 0 8 14" fill="none" xmlns="http://www.w3.org/2000/svg">
<path fill-rule="evenodd" clip-rule="evenodd" d="M1.48483 8.60983C1.63128 8.46339 1.86872 8.46339 2.01517 8.60983L4 10.5947L5.98484 8.60983C6.13128 8.46339 6.36872 8.46339 6.51517 8.60983C6.66161 8.75628 6.66161 8.99372 6.51517 9.14017L4.26517 11.3902C4.11872 11.5366 3.88128 11.5366 3.73484 11.3902L1.48483 9.14017C1.33839 8.99372 1.33839 8.75628 1.48483 8.60983Z" fill="black"/>
<path fill-rule="evenodd" clip-rule="evenodd" d="M1.48483 5.39017C1.63128 5.53661 1.86872 5.53661 2.01517 5.39017L4 3.40533L5.98484 5.39017C6.13128 5.53661 6.36872 5.53661 6.51517 5.39017C6.66161 5.24372 6.66161 5.00628 6.51517 4.85983L4.26517 2.60983C4.11872 2.46339 3.88128 2.46339 3.73484 2.60983L1.48483 4.85983C1.33839 5.00628 1.33839 5.24372 1.48483 5.39017Z" fill="black"/>
</svg>
