<svg width="20" height="20" viewBox="0 0 20 20" fill="none" xmlns="http://www.w3.org/2000/svg">
<path fill-rule="evenodd" clip-rule="evenodd" d="M18.75 10.9627V8.96269L16.325 8.1627L15.7625 6.8002L16.8625 4.50019L15.45 3.0877L13.1875 4.2252L11.825 3.6627L10.9625 1.2627H8.9625L8.175 3.6877L6.7875 4.2502L4.4875 3.1502L3.075 4.5627L4.2125 6.82519L3.65 8.18769L1.25 9.03769V11.0252L3.675 11.8252L4.2375 13.1877L3.1375 15.4877L4.55 16.9002L6.8125 15.7627L8.175 16.3252L9.0375 18.7252H11.025L11.8125 16.3002L13.2 15.7377L15.5 16.8377L16.9125 15.4252L15.7625 13.1627L16.35 11.8002L18.75 10.9377V10.9627ZM10 13.7502C7.925 13.7502 6.25 12.0752 6.25 10.0002C6.25 7.92519 7.925 6.2502 10 6.2502C12.075 6.2502 13.75 7.92519 13.75 10.0002C13.75 12.0752 12.075 13.7502 10 13.7502Z" fill="black"/>
</svg>
