<svg width="32" height="32" viewBox="0 0 32 32" fill="none" xmlns="http://www.w3.org/2000/svg">
<path d="M3 16C3 23.1794 8.82062 29 16 29C23.1794 29 29 23.1794 29 16C29 8.82062 23.1794 3 16 3C8.82062 3 3 8.82062 3 16ZM18.75 11.3663V20.6338C18.7499 20.8237 18.6956 21.0096 18.5937 21.1698C18.4917 21.3301 18.3463 21.4579 18.1743 21.5385C18.0023 21.6191 17.811 21.649 17.6226 21.6248C17.4342 21.6006 17.2566 21.5233 17.1106 21.4019L11.5425 16.7687C11.4297 16.6749 11.3389 16.5574 11.2766 16.4245C11.2143 16.2917 11.182 16.1467 11.182 16C11.182 15.8533 11.2143 15.7083 11.2766 15.5755C11.3389 15.4426 11.4297 15.3251 11.5425 15.2312L17.1106 10.5981C17.2566 10.4767 17.4342 10.3994 17.6226 10.3752C17.811 10.351 18.0023 10.3809 18.1743 10.4615C18.3463 10.5421 18.4917 10.6699 18.5937 10.8302C18.6956 10.9904 18.7499 11.1763 18.75 11.3663Z" fill="#FEB4AE"/>
</svg>
