<svg width="12" height="12" viewBox="0 0 12 12" fill="none" xmlns="http://www.w3.org/2000/svg">
<path d="M6 7.125C6.62132 7.125 7.125 6.62132 7.125 6C7.125 5.37868 6.62132 4.875 6 4.875C5.37868 4.875 4.875 5.37868 4.875 6C4.875 6.62132 5.37868 7.125 6 7.125Z" fill="black"/>
<path d="M6 10.875C6.62132 10.875 7.125 10.3713 7.125 9.75C7.125 9.12868 6.62132 8.625 6 8.625C5.37868 8.625 4.875 9.12868 4.875 9.75C4.875 10.3713 5.37868 10.875 6 10.875Z" fill="black"/>
<path d="M6 3.375C6.62132 3.375 7.125 2.87132 7.125 2.25C7.125 1.62868 6.62132 1.125 6 1.125C5.37868 1.125 4.875 1.62868 4.875 2.25C4.875 2.87132 5.37868 3.375 6 3.375Z" fill="black"/>
</svg>
