<svg width="20" height="20" viewBox="0 0 20 20" fill="none" xmlns="http://www.w3.org/2000/svg">
<path fill-rule="evenodd" clip-rule="evenodd" d="M7.31696 1.43309C7.49858 1.61473 7.55058 1.889 7.44804 2.12452C7.04427 3.05189 6.875 4.17035 6.875 5.31252C6.875 9.62711 10.3729 13.125 14.6875 13.125C15.8297 13.125 16.9481 12.9557 17.8755 12.552C18.111 12.4494 18.3853 12.5014 18.5669 12.6831C18.7486 12.8647 18.8006 13.139 18.6981 13.3745C17.2965 16.5942 14.0186 18.75 10.3125 18.75C5.30756 18.75 1.25 14.6925 1.25 9.68752C1.25 5.98142 3.40586 2.70349 6.62555 1.30196C6.86107 1.19944 7.13533 1.25145 7.31696 1.43309ZM5.82441 3.17794C3.79981 4.59854 2.5 7.00344 2.5 9.68752C2.5 14.0021 5.99791 17.5 10.3125 17.5C12.9966 17.5 15.4015 16.2002 16.8221 14.1756C16.1204 14.3163 15.3955 14.375 14.6875 14.375C9.68256 14.375 5.625 10.3175 5.625 5.31252C5.625 4.60449 5.68373 3.87959 5.82441 3.17794Z" fill="#8377D1"/>
</svg>
