<svg width="46" height="46" viewBox="0 0 46 46" fill="none" xmlns="http://www.w3.org/2000/svg">
<path d="M22.88 4.27502C12.6654 4.27502 4.35498 12.5854 4.35498 22.8C4.35498 33.0146 12.6654 41.325 22.88 41.325C33.0946 41.325 41.405 33.0146 41.405 22.8C41.405 12.5854 33.0946 4.27502 22.88 4.27502ZM18.4073 14.6793C19.5357 13.4832 21.1237 12.825 22.88 12.825C24.6363 12.825 26.21 13.4876 27.3429 14.69C28.4909 15.9084 29.0493 17.5453 28.9175 19.3052C28.6539 22.8 25.9464 25.65 22.88 25.65C19.8136 25.65 17.1007 22.8 16.8424 19.3043C16.7115 17.5302 17.269 15.8879 18.4073 14.6793V14.6793ZM22.88 38.475C20.7874 38.4764 18.7159 38.0576 16.7882 37.2434C14.8606 36.4292 13.1161 35.2362 11.6581 33.7351C12.4931 32.5443 13.5571 31.5319 14.7878 30.7569C17.058 29.3016 19.9311 28.5 22.88 28.5C25.8288 28.5 28.702 29.3016 30.9695 30.7569C32.2013 31.5315 33.2661 32.544 34.1019 33.7351C32.644 35.2363 30.8995 36.4294 28.9718 37.2437C27.0441 38.0579 24.9726 38.4766 22.88 38.475V38.475Z" fill="black"/>
</svg>
