<svg width="14" height="14" viewBox="0 0 14 14" fill="none" xmlns="http://www.w3.org/2000/svg">
<path fill-rule="evenodd" clip-rule="evenodd" d="M11.375 1.75H9.625C9.625 1.26875 9.23125 0.875 8.75 0.875H6.125C5.64375 0.875 5.25 1.26875 5.25 1.75H3.5C3.01875 1.75 2.625 2.14375 2.625 2.625V3.5C2.625 3.98125 3.01875 4.375 3.5 4.375V12.25C3.5 12.7313 3.89375 13.125 4.375 13.125H10.5C10.9813 13.125 11.375 12.7313 11.375 12.25V4.375C11.8563 4.375 12.25 3.98125 12.25 3.5V2.625C12.25 2.14375 11.8563 1.75 11.375 1.75ZM10.5 12.25H4.375V4.375H5.25V11.375H6.125V4.375H7V11.375H7.875V4.375H8.75V11.375H9.625V4.375H10.5V12.25ZM11.375 3.5H3.5V2.625H11.375V3.5Z" fill="#FF5C5C" fill-opacity="0.6"/>
</svg>
